<?xml version="1.0" standalone="no"?>
<!DOCTYPE svg PUBLIC "-//W3C//DTD SVG 20010904//EN"
 "http://www.w3.org/TR/2001/REC-SVG-20010904/DTD/svg10.dtd">
<svg version="1.0" xmlns="http://www.w3.org/2000/svg"
 width="500.000000pt" height="500.000000pt" viewBox="0 0 500.000000 500.000000"
 preserveAspectRatio="xMidYMid meet">
<metadata>
Created by potrace 1.14, written by Peter Selinger 2001-2017
</metadata>
<g transform="translate(0.000000,500.000000) scale(0.100000,-0.100000)"
fill="#000000" stroke="none">
<path d="M2657 4064 c-3 -3 -328 -6 -723 -6 -742 0 -760 -1 -836 -41 -64 -33
-108 -88 -135 -168 -17 -51 -18 -125 -17 -1359 1 -1063 3 -1311 14 -1335 7
-16 14 -33 14 -37 1 -4 9 -17 19 -28 9 -11 17 -23 17 -26 0 -20 137 -107 157
-100 7 3 15 1 17 -3 9 -13 89 -14 1376 -15 1267 0 1293 0 1337 38 33 29 43 36
50 36 14 1 70 83 90 130 17 43 18 107 17 1345 0 715 -3 1312 -6 1327 -12 52
-42 102 -91 150 -27 26 -52 46 -57 43 -5 -3 -10 -1 -12 4 -1 5 -25 15 -53 23
-38 11 -117 15 -320 16 -148 0 -272 2 -275 3 -3 1 -9 1 -13 0 -27 -5 -547 -2
-555 3 -5 3 -12 3 -15 0z"/>
</g>
</svg>
